# xmcd
#
# Track frame offsets:
#	210
#	11715
#	21695
#	31765
#	34667
#	43437
#	54832
#	71197
#	79292
#	90627
#	95300
#	112387
#	121105
#	138155
#	146722
#	164347
#	174120
#	190745
#	197832
#	208560
#	225257
#	235652
#	257775
#	264075
#	269355
#	274775
#
# Disc length: 3827 seconds
#
# Revision: 0
# Processed by: cddbd v1.5.2PL0 Copyright (c) Steve Scherf et al.
# Submitted via: audiograbber 1.83.01
#
DISCID=6b0ef11a
DTITLE=Various Artist - Sing For Freedom: The Story Of The Civil Rights Movement
DYEAR=1963
DGENRE=Gospel 
TTITLE0=Montgomery Improvement Assoc HS Students - We Are Soldiers In The Army
TTITLE1=Montgomery Improvement Assoc HS Students - Keep Your Hand on the Plow
TTITLE2=Montgomery Improvement Assoc HS Students - This Little Light
TTITLE3=Nashville Quartet (Amer Baptist Theo Seminary) - You Better Leave Segre
TTITLE3=gation Alone
TTITLE4=Nashville Quartet (Amer Baptist Theo Seminary) - Your Dog Loves My Dog
TTITLE5=SNCC Freedom Singers - Ain't Gonna Let Nobody Turn Me Around
TTITLE6=Rev. Ben Gay (Albany, GA) - I Woke Up This Morning With My Mind on Free
TTITLE6=dom
TTITLE7=Charles Jones and Cordell Reagon - Keep Your Eyes On The Prize
TTITLE8=Gober, Harris, Sherrod and Culbreath - Oh Pritchett, Oh Kelly
TTITLE9=Betty Mae Fikes - Up Above My Head
TTITLE10=Rutha Harris, Betty Mae Fikes and Others - This Little Light
TTITLE11=Cordell Reagon - Brown Baby
TTITLE12=Charles Neblett, Rutha Harris and Cordell Reagon - Which Side Are You On
TTITLE12=?
TTITLE13=Hollis Watkins - I'm Gonna Sit At The Welcome Table
TTITLE14=Hollis Watkins - Mass Meeting And Prayer
TTITLE15=Doc Reese and Congregation - Guide My Feet
TTITLE16=Carlton Reese and Birmingham Movement Choir - I'm On My Way
TTITLE17=Rev. Ralph Abernathy Speaking - Rev. Ralph Abernathy
TTITLE18=Cleo Kennedy and Carlton Reece - Yes, We Want Our Freedom
TTITLE19=Rev. Martin Luther King Speaking - Rev. Martin Luther King
TTITLE20=Carlton Reese and Birmingham Movement Choir - Ninety-Nine-And-A-Half Won
TTITLE20='t Do
TTITLE21=Fannie Lou Hamer and Bob Moses - Get On Board
TTITLE22=Bob Moses and Woman From Greenwood, Mississippi - No Danger In The Water
TTITLE23=Bob Moses and Woman From Greenwood, Mississippi - Medgar Evans Speaking
TTITLE24=Bob Moses and Woman From Greenwood, Mississippi - Keep Your Eyes On The 
TTITLE24=Prize
TTITLE25=SNCC Freedom Singers 1988 Reunion - We Shall Overcome
EXTD=
EXTT0=
EXTT1=
EXTT2=
EXTT3=
EXTT4=
EXTT5=
EXTT6=
EXTT7=
EXTT8=
EXTT9=
EXTT10=
EXTT11=
EXTT12=
EXTT13=
EXTT14=
EXTT15=
EXTT16=
EXTT17=
EXTT18=
EXTT19=
EXTT20=
EXTT21=
EXTT22=
EXTT23=
EXTT24=
EXTT25=
PLAYORDER=
